<svg xmlns="http://www.w3.org/2000/svg" width="1200" height="900" viewBox="0 0 1200 900">
  <defs>
    <linearGradient id="bg" x1="0" y1="0" x2="1" y2="1">
      <stop offset="0%" stop-color="#F4E4D4" />
      <stop offset="100%" stop-color="#E3C3A6" />
    </linearGradient>
  </defs>
  <rect width="1200" height="900" rx="48" fill="url(#bg)" />
  <rect x="310" y="260" width="580" height="400" rx="36" fill="#6A3B2A" />
  <rect x="340" y="290" width="520" height="340" rx="28" fill="#7A4730" />
  <g fill="#8B5237">
    <rect x="360" y="310" width="140" height="100" rx="18" />
    <rect x="520" y="310" width="140" height="100" rx="18" />
    <rect x="680" y="310" width="140" height="100" rx="18" />
    <rect x="360" y="430" width="140" height="100" rx="18" />
    <rect x="520" y="430" width="140" height="100" rx="18" />
    <rect x="680" y="430" width="140" height="100" rx="18" />
  </g>
  <path d="M360 270c40 30 90 30 130 0" fill="none" stroke="#F4D6B2" stroke-width="12" stroke-linecap="round" />
  <path d="M710 270c40 30 90 30 130 0" fill="none" stroke="#F4D6B2" stroke-width="12" stroke-linecap="round" />
</svg>
