<svg xmlns="http://www.w3.org/2000/svg" width="1200" height="900" viewBox="0 0 1200 900">
  <defs>
    <linearGradient id="bg" x1="0" y1="0" x2="1" y2="1">
      <stop offset="0%" stop-color="#F7E2D5" />
      <stop offset="100%" stop-color="#F0BFA5" />
    </linearGradient>
  </defs>
  <rect width="1200" height="900" rx="48" fill="url(#bg)" />
  <circle cx="600" cy="620" r="210" fill="#FDF9F3" />
  <circle cx="600" cy="620" r="165" fill="#F5E2CB" />
  <path d="M470 595c40-40 90-50 140-30 40 15 75 50 105 95" fill="none" stroke="#F2C879" stroke-width="14" stroke-linecap="round" />
  <path d="M520 650c30-40 80-50 120-35 45 16 70 50 90 85" fill="none" stroke="#F2C879" stroke-width="14" stroke-linecap="round" />
  <path d="M450 645c30-15 70-5 100 15 40 25 70 55 100 95" fill="none" stroke="#F0BF6A" stroke-width="12" stroke-linecap="round" />
  <circle cx="600" cy="600" r="65" fill="#C65A3C" />
  <circle cx="570" cy="585" r="16" fill="#E2B48B" />
  <circle cx="640" cy="625" r="14" fill="#E2B48B" />
</svg>
